<?xml version="1.0" standalone="no"?><!-- Generator: Gravit.io --><svg xmlns="http://www.w3.org/2000/svg" xmlns:xlink="http://www.w3.org/1999/xlink" style="isolation:isolate" viewBox="0 0 736.956 591.193" width="736.956" height="591.193"><defs><clipPath id="_clipPath_K7yApnEpyIiDe0TG8vtu0gyfjMMtjhl9"><rect width="736.956" height="591.193"/></clipPath></defs><g clip-path="url(#_clipPath_K7yApnEpyIiDe0TG8vtu0gyfjMMtjhl9)"><g id="pillar" style="opacity:0.5;"><g opacity="0.3"><path d=" M 142.573 348.679 L 115.344 332.945 C 113.284 331.766 113.544 329.696 115.913 328.327 L 141.783 313.383 C 144.153 312.013 147.781 311.873 149.78 313.053 L 177.02 328.777 C 179.069 329.966 178.809 332.036 176.44 333.405 L 150.59 348.339 C 148.241 349.709 144.632 349.859 142.573 348.679 Z " fill="rgb(201,207,229)"/></g><g opacity="0.5"><linearGradient id="_lgradient_52" x1="0%" y1="50.0016017061761%" x2="100.00334441584684%" y2="50.0016017061761%"><stop offset="0%" stop-opacity="1" style="stop-color:rgb(234,239,245)"/><stop offset="99%" stop-opacity="1" style="stop-color:rgb(222,225,240)"/></linearGradient><path d=" M 178.409 317.911 C 178.42 317.828 178.42 317.744 178.409 317.661 L 178.409 25.263 L 113.954 25.263 L 113.954 317.961 C 114.02 318.83 114.552 319.596 115.344 319.96 L 142.573 335.684 C 144.632 336.874 148.221 336.684 150.57 335.354 L 176.44 320.42 C 177.431 319.965 178.152 319.074 178.389 318.011 L 178.389 318.011 L 178.409 317.911 Z " fill="url(#_lgradient_52)"/></g><g opacity="0.5"><path d=" M 142.573 43.166 L 115.344 27.442 C 113.284 26.252 113.544 24.183 115.913 22.814 L 141.783 7.879 C 144.153 6.51 147.781 6.36 149.78 7.55 L 177.02 23.274 C 179.069 24.453 178.809 26.532 176.44 27.902 L 150.59 42.836 C 148.241 44.206 144.632 44.355 142.573 43.166 Z " fill="rgb(255,255,255)"/></g></g><g id="pillar-2" style="opacity:0.5;"><g opacity="0.3"><path d=" M 28.807 528.29 L 1.567 512.566 C -0.432 511.377 -0.222 509.308 2.147 507.938 L 28.017 493.004 C 30.386 491.634 34.015 491.485 36.014 492.664 L 63.273 508.398 C 65.333 509.578 65.073 511.647 62.704 513.016 L 36.834 527.961 C 34.445 529.33 30.866 529.47 28.807 528.29 Z " fill="rgb(201,207,229)"/></g><g opacity="0.5"><linearGradient id="_lgradient_53" x1="0%" y1="50%" x2="100%" y2="50%"><stop offset="100%" stop-opacity="1" style="stop-color:rgb(234,239,245)"/><stop offset="100%" stop-opacity="1" style="stop-color:rgb(234,239,245)"/></linearGradient><path d=" M 64.643 497.522 C 64.648 497.439 64.648 497.356 64.643 497.272 L 64.643 204.874 L 0.188 204.874 L 0.188 497.572 C 0.247 498.441 0.776 499.208 1.567 499.571 L 28.807 515.295 C 30.866 516.485 34.445 516.295 36.804 514.966 L 62.674 500.031 C 63.664 499.577 64.385 498.686 64.623 497.622 L 64.623 497.622 L 64.643 497.522 Z " fill="url(#_lgradient_53)"/></g><g opacity="0.5"><path d=" M 28.807 222.777 L 1.567 207.053 C -0.432 205.864 -0.222 203.795 2.147 202.425 L 28.017 187.491 C 30.386 186.121 34.015 185.971 36.014 187.161 L 63.273 202.885 C 65.333 204.074 65.073 206.144 62.704 207.513 L 36.834 222.447 C 34.445 223.817 30.866 223.967 28.807 222.777 Z " fill="rgb(255,255,255)"/></g></g><g id="pillar-3" style="opacity:0.5;"><g opacity="0.3"><path d=" M 254.201 354.127 L 226.961 338.393 C 224.962 337.214 225.162 335.144 227.541 333.775 L 253.411 318.841 C 255.78 317.471 259.409 317.321 261.408 318.501 L 288.657 334.245 C 290.657 335.434 290.447 337.503 288.078 338.873 L 262.197 353.787 C 259.838 355.157 256.25 355.307 254.201 354.127 Z " fill="rgb(201,207,229)"/></g><g opacity="0.5"><linearGradient id="_lgradient_54" x1="0%" y1="50%" x2="100%" y2="50%"><stop offset="100%" stop-opacity="1" style="stop-color:rgb(234,239,245)"/><stop offset="100%" stop-opacity="1" style="stop-color:rgb(234,239,245)"/></linearGradient><path d=" M 290.037 323.359 L 290.037 30.711 L 225.581 30.711 L 225.581 323.409 C 225.637 324.279 226.167 325.048 226.961 325.408 L 254.201 341.132 C 256.2 342.322 259.838 342.132 262.197 340.802 L 288.068 325.868 C 289.079 325.428 289.821 324.534 290.067 323.459 L 290.067 323.459 L 290.037 323.359 Z " fill="url(#_lgradient_54)"/></g><g opacity="0.5"><path d=" M 254.201 48.614 L 226.961 32.89 C 224.962 31.7 225.162 29.631 227.541 28.262 L 253.411 13.367 C 255.78 11.998 259.409 11.848 261.408 13.037 L 288.647 28.761 C 290.647 29.951 290.437 32.02 288.068 33.39 L 262.197 48.284 C 259.838 49.653 256.25 49.803 254.201 48.614 Z " fill="rgb(255,255,255)"/></g></g><g id="pillar-4" style="opacity:0.5;"><g opacity="0.3"><path d=" M 372.095 397.351 L 344.856 381.627 C 342.797 380.447 343.057 378.368 345.426 376.998 L 371.296 362.064 C 373.675 360.695 377.293 360.545 379.293 361.734 L 406.532 377.458 C 408.581 378.648 408.322 380.717 405.953 382.086 L 380.152 397.021 C 377.733 398.39 374.155 398.54 372.095 397.351 Z " fill="rgb(201,207,229)"/></g><g opacity="0.5"><linearGradient id="_lgradient_55" x1="0%" y1="50%" x2="100%" y2="50%"><stop offset="100%" stop-opacity="1" style="stop-color:rgb(234,239,245)"/><stop offset="100%" stop-opacity="1" style="stop-color:rgb(234,239,245)"/></linearGradient><path d=" M 407.922 366.592 C 407.932 366.509 407.932 366.425 407.922 366.342 L 407.922 73.934 L 343.466 73.934 L 343.466 366.632 C 343.532 367.502 344.064 368.267 344.856 368.632 L 372.095 384.356 C 374.095 385.535 377.733 385.355 380.092 384.026 L 405.962 369.081 C 406.957 368.632 407.68 367.738 407.912 366.672 L 407.912 366.672 L 407.922 366.592 Z " fill="url(#_lgradient_55)"/></g><g opacity="0.5"><path d=" M 372.095 91.847 L 344.856 76.123 C 342.797 74.934 343.057 72.865 345.426 71.495 L 371.296 56.561 C 373.675 55.191 377.293 55.041 379.293 56.221 L 406.532 71.955 C 408.581 73.134 408.322 75.204 405.953 76.573 L 380.082 91.567 C 377.733 92.877 374.155 93.027 372.095 91.847 Z " fill="rgb(255,255,255)"/></g></g><g id="pillar-5" style="opacity:0.5;"><g opacity="0.3"><path d=" M 456.193 301.257 L 428.954 285.533 C 426.904 284.344 427.164 282.275 429.533 280.905 L 455.404 265.971 C 457.773 264.601 461.401 264.451 463.401 265.641 L 490.64 281.365 C 492.699 282.554 492.439 284.624 490.07 285.993 L 464.2 300.927 C 461.831 302.257 458.253 302.437 456.193 301.257 Z " fill="rgb(201,207,229)"/></g><g opacity="0.5"><linearGradient id="_lgradient_56" x1="0%" y1="50%" x2="100%" y2="50%"><stop offset="100%" stop-opacity="1" style="stop-color:rgb(234,239,245)"/><stop offset="100%" stop-opacity="1" style="stop-color:rgb(234,239,245)"/></linearGradient><path d=" M 492.03 270.489 C 492.035 270.406 492.035 270.322 492.03 270.239 L 492.03 38.718 L 427.574 38.718 L 427.574 270.529 C 427.638 271.396 428.166 272.161 428.954 272.528 L 456.193 288.262 C 458.253 289.442 461.831 289.262 464.19 287.922 L 490.11 272.988 C 491.103 272.536 491.825 271.644 492.06 270.579 L 492.06 270.579 L 492.03 270.489 Z " fill="url(#_lgradient_56)"/></g><g opacity="0.5"><path d=" M 456.193 56.631 L 428.954 40.907 C 426.904 39.717 427.164 37.648 429.533 36.279 L 455.404 21.364 C 457.773 19.995 461.401 19.845 463.401 21.024 L 490.64 36.758 C 492.699 37.938 492.439 40.007 490.07 41.377 L 464.21 56.351 C 461.831 57.67 458.253 57.81 456.193 56.631 Z " fill="rgb(255,255,255)"/></g></g><g id="google"><g id="e_pillar"><g opacity="0.3"><path d=" M 551.417 231.604 L 507.434 206.234 C 504.125 204.324 504.535 200.986 508.363 198.776 L 550.097 174.686 C 553.926 172.476 559.714 172.237 563.022 174.146 L 606.956 199.516 C 610.274 201.425 609.855 204.764 606.036 206.973 L 564.302 231.064 C 560.513 233.283 554.726 233.513 551.417 231.604 Z " fill="rgb(201,207,229)"/></g><linearGradient id="_lgradient_57" x1="0%" y1="50%" x2="100%" y2="50%"><stop offset="100%" stop-opacity="1" style="stop-color:rgb(234,239,245)"/><stop offset="100%" stop-opacity="1" style="stop-color:rgb(234,239,245)"/></linearGradient><path d=" M 609.225 181.983 C 609.225 181.843 609.225 181.713 609.225 181.573 L 609.225 53.462 L 505.265 53.462 L 505.265 182.053 C 505.364 183.455 506.218 184.692 507.494 185.282 L 551.477 210.652 C 554.786 212.561 560.573 212.321 564.402 210.112 L 606.066 186.021 C 607.995 184.902 609.065 183.502 609.205 182.133 L 609.205 182.133 L 609.225 181.983 Z " fill="url(#_lgradient_57)"/><path d=" M 551.417 82.341 L 507.434 56.971 C 504.125 55.061 504.535 51.713 508.363 49.513 L 550.097 25.413 C 553.926 23.204 559.714 22.964 563.022 24.883 L 606.996 50.253 C 610.314 52.172 609.895 55.511 606.076 57.72 L 564.342 81.811 C 560.513 84.02 554.726 84.26 551.417 82.341 Z " fill="rgb(255,255,255)"/><g opacity="0.5"><linearGradient id="_lgradient_58" x1="0%" y1="50%" x2="86.56642097802238%" y2="-0.0625085174105644%"><stop offset="100%" stop-opacity="1" style="stop-color:rgb(222,225,240)"/><stop offset="100%" stop-opacity="1" style="stop-color:rgb(223,226,240)"/></linearGradient><path d=" M 552.267 58.93 L 569.47 49.004 C 570.74 48.264 570.67 47.134 569.3 46.465 L 569.14 46.385 C 567.612 45.72 565.868 45.76 564.372 46.495 L 547.169 56.431 C 545.899 57.161 545.969 58.3 547.338 58.97 L 547.498 59.05 C 549.027 59.717 550.773 59.673 552.267 58.93 Z " fill="url(#_lgradient_58)"/></g><g id="Group"><path d=" M 571.079 22.614 C 571.079 22.614 566.941 23.104 564.892 23.094 C 559.144 32.99 550.817 37.168 548.798 31.25 C 556.865 24.843 564.352 17.876 572.359 11.508 C 572.607 8.941 572.103 6.357 570.909 4.071 L 571.579 2.551 L 567.281 0.722 L 567.281 0.722 C 564.982 -0.277 562.033 -0.277 558.734 0.962 C 550.287 4.201 541.881 15.047 539.741 25.413 C 537.452 36.548 541.531 43.896 552.167 44.805 C 559.164 45.395 574.888 24.493 574.888 24.493 L 571.079 22.614 Z  M 553.536 12.368 C 557.844 8.629 562.533 8.299 564.712 11.708 L 548.088 24.863 C 548.003 20.104 549.991 15.544 553.536 12.368 L 553.536 12.368 Z " fill="rgb(255,65,48)"/><path d=" M 576.737 13.367 L 552.616 32.54 C 554.616 38.458 562.962 34.279 568.7 24.373 C 570.7 24.373 572.819 24.483 574.918 24.493 C 571.679 34.199 562.083 43.356 554.086 44.645 C 546.089 45.935 541.831 38.358 544.09 27.272 C 546.219 16.896 554.626 6.06 563.082 2.811 C 571.259 -0.327 577.287 4.231 576.737 13.367 Z  M 568.161 13.537 C 566.001 10.119 562.163 10.538 557.884 14.237 C 554.006 17.616 551.577 22.314 551.577 26.672 L 568.161 13.537 Z " fill="rgb(255,97,97)"/></g></g><g id="g_pillar"><g opacity="0.3"><path d=" M 334.62 402.908 L 279.141 370.921 C 274.953 368.502 275.482 364.283 280.311 361.494 L 333 331.076 C 337.829 328.287 345.136 327.987 349.324 330.396 L 404.793 362.434 C 408.981 364.843 408.452 369.061 403.623 371.85 L 350.934 402.219 C 346.105 405.018 338.798 405.327 334.62 402.908 Z " fill="rgb(201,207,229)"/></g><linearGradient id="_lgradient_59" x1="0%" y1="50%" x2="100%" y2="50%"><stop offset="100%" stop-opacity="1" style="stop-color:rgb(234,239,245)"/><stop offset="100%" stop-opacity="1" style="stop-color:rgb(234,239,245)"/></linearGradient><path d=" M 407.602 340.242 C 407.612 340.073 407.612 339.902 407.602 339.733 L 407.602 113.659 L 276.322 113.659 L 276.322 340.342 C 276.322 341.872 277.252 343.341 279.141 344.421 L 334.62 376.409 C 338.798 378.828 346.105 378.528 350.934 375.739 L 403.623 345.31 C 406.062 343.901 407.402 342.132 407.622 340.402 L 407.622 340.402 L 407.602 340.242 Z " fill="url(#_lgradient_59)"/><path d=" M 334.62 150.125 L 279.141 118.137 C 274.953 115.728 275.482 111.51 280.311 108.721 L 333 78.292 C 337.829 75.504 345.136 75.204 349.324 77.623 L 404.793 109.611 C 408.981 112.02 408.452 116.238 403.623 119.027 L 350.934 149.455 C 346.105 152.244 338.798 152.544 334.62 150.125 Z " fill="rgb(255,255,255)"/><g opacity="0.5"><linearGradient id="_lgradient_60" x1="0%" y1="50%" x2="86.56642097802238%" y2="-0.0625085174105866%"><stop offset="100%" stop-opacity="1" style="stop-color:rgb(222,225,240)"/><stop offset="100%" stop-opacity="1" style="stop-color:rgb(222,225,240)"/></linearGradient><path d=" M 335.689 120.566 L 357.411 108.021 C 359.02 107.091 358.92 105.662 357.201 104.812 L 356.991 104.712 C 355.067 103.88 352.874 103.935 350.994 104.862 L 329.272 117.408 C 327.662 118.327 327.762 119.767 329.482 120.606 L 329.692 120.706 C 331.615 121.542 333.807 121.49 335.689 120.566 Z " fill="url(#_lgradient_60)"/></g></g><g id="l_pillar"><g opacity="0.3"><path d=" M 521.838 319.56 L 494.599 303.836 C 492.599 302.657 492.809 300.578 495.178 299.208 L 521.098 284.264 C 523.468 282.894 527.096 282.744 529.095 283.934 L 556.335 299.658 C 558.394 300.847 558.134 302.917 555.765 304.286 L 529.855 319.25 C 527.476 320.6 523.897 320.75 521.838 319.56 Z " fill="rgb(201,207,229)"/></g><linearGradient id="_lgradient_61" x1="0%" y1="50%" x2="100%" y2="50%"><stop offset="100%" stop-opacity="1" style="stop-color:rgb(234,239,245)"/><stop offset="100%" stop-opacity="1" style="stop-color:rgb(234,239,245)"/></linearGradient><path d=" M 557.675 288.802 C 557.68 288.719 557.68 288.635 557.675 288.552 L 557.675 192.109 L 493.219 192.109 L 493.219 288.842 C 493.281 289.71 493.809 290.476 494.599 290.841 L 521.838 306.565 C 523.897 307.755 527.476 307.565 529.835 306.235 L 555.725 291.261 C 556.737 290.822 557.479 289.927 557.724 288.852 L 557.724 288.852 L 557.675 288.802 Z " fill="url(#_lgradient_61)"/><path d=" M 521.838 210.022 L 494.599 194.298 C 492.599 193.119 492.809 191.049 495.178 189.68 L 521.098 174.736 C 523.468 173.366 527.096 173.216 529.095 174.396 L 556.335 190.12 C 558.394 191.309 558.134 193.379 555.765 194.748 L 529.895 209.682 C 527.476 211.052 523.897 211.202 521.838 210.022 Z " fill="rgb(255,255,255)"/><g opacity="0.5"><linearGradient id="_lgradient_62" x1="0%" y1="50%" x2="86.58650732445511%" y2="-0.027759787462799945%"><stop offset="100%" stop-opacity="1" style="stop-color:rgb(222,225,240)"/><stop offset="100%" stop-opacity="1" style="stop-color:rgb(223,226,240)"/></linearGradient><path d=" M 523.967 194.838 L 533.324 189.44 C 534.014 189.04 533.734 188.021 532.704 187.151 L 532.584 187.051 C 531.584 186.191 530.165 185.811 529.475 186.211 L 520.119 191.609 C 519.429 192.009 519.709 193.029 520.739 193.898 L 520.859 193.998 C 521.888 194.858 523.278 195.238 523.967 194.838 Z " fill="url(#_lgradient_62)"/></g><g id="Group"><path d=" M 535.293 105.435 L 542.29 108.434 C 542.29 108.434 535.293 130.515 535.293 140.811 C 535.293 143.66 535.293 146.499 535.293 149.388 C 537.482 160.004 533.544 169.31 523.118 174.139 C 517.957 178.326 512.553 182.205 506.934 185.754 C 506.934 185.754 499.937 182.895 499.787 182.805 L 504.325 172.139 C 508.93 172.71 513.584 171.576 517.41 168.95 C 524.187 164.532 523.927 164.172 522.818 157.045 C 518.27 161.913 518.33 165.122 515.331 165.912 C 510.862 167.091 504.035 163.842 500.656 160.334 C 495.548 155.026 496.098 141.821 501.886 131.005 C 507.884 119.709 517.29 112.962 526.007 113.602 C 528.176 107.294 531.984 108.813 535.293 105.435 Z  M 505.904 143.75 C 505.904 151.347 510.043 154.056 516.26 150.538 C 522.478 147.019 526.996 139.122 526.966 131.545 C 526.936 123.968 522.568 121.499 516.44 125.067 C 511.428 130.32 507.806 136.742 505.904 143.75 L 505.904 143.75 Z " fill="rgb(71,146,255)"/><path d=" M 542.3 108.394 C 542.3 120.699 542.3 132.205 542.3 143.72 C 542.3 146.569 542.35 149.408 542.3 152.297 C 541.912 161.894 537.49 170.882 530.125 177.047 C 521.878 184.155 514.221 187.114 506.904 185.714 C 508.483 181.986 509.813 178.627 511.332 175.048 C 515.94 175.622 520.599 174.487 524.427 171.859 C 531.205 167.441 534.423 160.864 533.314 153.786 C 521.998 165.902 513.322 169.11 507.674 163.243 C 502.566 157.935 503.115 144.73 508.903 133.914 C 514.901 122.618 524.307 115.921 533.024 116.511 C 535.223 110.243 539.002 111.762 542.3 108.394 Z  M 512.952 146.699 C 512.952 154.296 517.08 157.005 523.308 153.486 C 529.535 149.968 534.044 142.071 534.004 134.494 C 533.964 126.917 529.615 124.447 523.438 128.066 C 517.26 131.685 512.972 139.152 512.952 146.699 Z " fill="rgb(122,176,255)"/></g><g id="Group"><path d=" M 339.279 101.397 C 337.28 102.577 335.4 108.025 335.4 108.025 L 331.482 105.896 L 331.482 42.27 L 339.279 37.762 C 339.279 37.762 343.147 40.071 343.147 40.071 C 343.147 40.071 339.279 81.875 339.279 101.397 Z " fill="rgb(46,201,82)"/><path d=" M 343.127 103.577 C 340.438 105.126 338.019 106.496 335.4 108.015 C 335.4 86.773 335.33 65.751 335.33 44.429 C 337.829 42.99 340.398 41.63 343.147 40.051 C 343.147 61.103 343.127 82.135 343.127 103.577 Z " fill="rgb(82,229,116)"/></g></g><g id="o_pillar"><g opacity="0.3"><path d=" M 203.03 419.502 L 159.047 394.132 C 155.738 392.222 156.148 388.884 159.977 386.675 L 201.711 362.574 C 205.529 360.365 211.317 360.125 214.636 362.044 L 258.569 387.404 C 261.888 389.324 261.468 392.662 257.639 394.871 L 215.905 418.962 C 212.127 421.211 206.339 421.411 203.03 419.502 Z " fill="rgb(201,207,229)"/></g><linearGradient id="_lgradient_63" x1="0%" y1="50%" x2="100%" y2="50%"><stop offset="100%" stop-opacity="1" style="stop-color:rgb(234,239,245)"/><stop offset="100%" stop-opacity="1" style="stop-color:rgb(234,239,245)"/></linearGradient><path d=" M 260.828 369.871 C 260.838 369.738 260.838 369.604 260.828 369.471 L 260.828 138.809 L 156.868 138.809 L 156.868 369.951 C 156.967 371.353 157.821 372.59 159.097 373.18 L 203.08 398.55 C 206.389 400.459 212.177 400.219 215.995 398.01 L 257.729 373.919 C 259.668 372.8 260.728 371.39 260.878 370.031 L 260.878 370.031 L 260.828 369.871 Z " fill="url(#_lgradient_63)"/><path d=" M 203.03 167.698 L 159.047 142.328 C 155.738 140.419 156.148 137.08 159.977 134.871 L 201.711 110.77 C 205.529 108.561 211.317 108.321 214.636 110.24 L 258.569 135.601 C 261.888 137.52 261.468 140.859 257.639 143.068 L 215.905 167.159 C 212.127 169.368 206.339 169.608 203.03 167.698 Z " fill="rgb(255,255,255)"/><g opacity="0.5"><linearGradient id="_lgradient_64" x1="0%" y1="50%" x2="86.56642097802248%" y2="-0.06250851741040897%"><stop offset="100%" stop-opacity="1" style="stop-color:rgb(222,225,240)"/><stop offset="100%" stop-opacity="1" style="stop-color:rgb(223,226,240)"/></linearGradient><path d=" M 203.88 144.317 L 221.083 134.321 C 222.353 133.581 222.273 132.452 220.913 131.782 L 220.753 131.702 C 219.225 131.037 217.481 131.077 215.985 131.812 L 198.782 141.748 C 197.512 142.488 197.582 143.618 198.952 144.287 L 199.112 144.367 C 200.631 145.051 202.375 145.033 203.88 144.317 Z " fill="url(#_lgradient_64)"/></g><path d=" M 231.092 95.782 C 231.092 94.452 230.982 93.122 230.732 91.822 C 230.522 90.722 230.192 89.642 229.732 88.622 C 229.332 87.742 228.812 86.922 228.182 86.192 C 227.612 85.542 226.942 84.982 226.192 84.532 L 222.142 82.202 L 221.982 82.112 L 221.882 82.062 C 220.622 81.422 219.222 81.092 217.812 81.112 C 216.502 81.122 215.192 81.332 213.942 81.732 C 212.412 82.212 210.932 82.862 209.552 83.672 C 206.812 85.272 204.312 87.252 202.122 89.542 C 199.822 91.932 197.822 94.582 196.152 97.442 C 194.482 100.282 193.152 103.302 192.192 106.452 C 191.272 109.432 190.792 112.522 190.752 115.642 C 190.752 115.642 190.752 115.642 190.752 115.642 L 190.752 116.102 C 190.752 121.172 193.442 125.882 197.812 128.452 L 199.652 129.442 L 199.842 129.552 L 199.982 129.622 L 200.262 129.772 C 201.192 130.172 202.192 130.372 203.192 130.352 C 204.432 130.332 205.652 130.162 206.852 129.852 C 208.892 129.372 210.842 128.532 212.582 127.362 C 214.272 126.532 215.812 125.422 217.142 124.092 C 219.212 122.282 221.092 120.272 222.752 118.082 C 224.452 115.882 225.922 113.512 227.172 111.032 C 228.392 108.612 229.362 106.072 230.062 103.452 C 230.722 100.982 231.072 98.442 231.092 95.882 L 231.092 95.792 C 231.092 95.782 231.092 95.782 231.092 95.782 Z  M 233.092 95.792 C 233.102 94.332 232.962 92.882 232.702 91.452 C 232.462 90.192 232.082 88.972 231.552 87.802 C 231.082 86.742 230.452 85.762 229.702 84.892 C 228.982 84.062 228.142 83.362 227.202 82.812 C 227.192 82.802 227.192 82.802 227.192 82.802 L 223.142 80.482 L 222.962 80.372 L 222.812 80.292 C 222.812 80.292 222.802 80.282 222.792 80.282 C 221.242 79.492 219.532 79.092 217.792 79.112 C 216.282 79.132 214.782 79.372 213.342 79.822 C 211.662 80.342 210.052 81.062 208.542 81.952 C 205.642 83.642 202.992 85.732 200.672 88.162 C 198.272 90.662 196.172 93.432 194.432 96.432 C 192.672 99.402 191.282 102.572 190.282 105.872 C 189.302 109.022 188.792 112.312 188.752 115.612 L 188.752 116.082 C 188.752 116.092 188.752 116.092 188.752 116.102 C 188.752 121.882 191.822 127.262 196.812 130.182 C 196.822 130.192 196.832 130.202 196.842 130.202 L 198.692 131.202 L 198.882 131.312 L 199.062 131.402 L 199.392 131.572 C 199.412 131.572 199.422 131.582 199.432 131.592 C 200.632 132.112 201.922 132.382 203.232 132.352 C 204.612 132.332 205.992 132.142 207.332 131.792 C 209.552 131.272 211.672 130.362 213.592 129.102 C 215.402 128.182 217.062 126.992 218.512 125.552 C 220.652 123.672 222.612 121.572 224.342 119.302 C 226.112 116.992 227.652 114.522 228.962 111.932 C 230.242 109.392 231.262 106.722 231.992 103.972 C 232.702 101.332 233.072 98.622 233.092 95.892 C 233.092 95.892 233.092 95.892 233.092 95.882 L 233.092 95.792 Z  M 220.362 98.182 L 220.342 98.732 C 220.312 100.642 220.022 102.542 219.472 104.372 C 218.922 106.242 218.152 108.042 217.172 109.732 C 216.202 111.412 215.032 112.972 213.692 114.372 C 212.402 115.742 210.922 116.902 209.292 117.842 C 207.472 118.982 205.352 119.542 203.202 119.462 C 202.082 117.652 201.492 115.572 201.492 113.442 C 201.492 113.432 201.492 113.422 201.492 113.412 L 201.512 112.812 L 201.512 112.782 C 201.512 112.772 201.512 112.762 201.512 112.752 C 201.702 104.972 205.822 97.792 212.462 93.712 C 214.282 92.582 216.402 92.022 218.542 92.102 C 219.732 93.902 220.362 96.002 220.362 98.152 C 220.362 98.162 220.362 98.172 220.362 98.182 Z  M 203.512 112.792 C 203.682 105.692 207.452 99.142 213.512 95.422 C 214.692 94.682 216.022 94.242 217.402 94.122 C 218.032 95.372 218.362 96.752 218.362 98.142 L 218.342 98.682 C 218.342 98.692 218.342 98.692 218.342 98.702 C 218.322 100.432 218.052 102.142 217.562 103.802 C 217.052 105.522 216.342 107.182 215.432 108.732 C 214.552 110.272 213.472 111.712 212.242 112.992 C 211.072 114.232 209.732 115.282 208.262 116.132 C 207.092 116.872 205.762 117.312 204.382 117.432 C 203.792 116.192 203.492 114.832 203.492 113.462 L 203.512 112.842 L 203.512 112.792 Z " fill-rule="evenodd" fill="rgb(251,188,5)"/><path d=" M 213.026 85.1 C 223.722 78.962 232.019 83.62 232.089 95.786 C 232.159 107.951 223.722 122.486 212.886 128.773 C 202.05 135.061 193.724 130.373 193.744 117.957 C 193.764 105.542 202.07 91.397 213.026 85.1 Z  M 202.51 112.829 C 202.51 120.077 206.719 122.736 212.796 119.287 C 218.874 115.838 223.302 108.131 223.362 101.014 C 223.422 93.897 219.004 91.188 212.986 94.616 C 206.632 98.519 202.689 105.375 202.51 112.829 Z " fill="rgb(249,212,102)"/></g><g id="o_pillar-2"><g opacity="0.3"><path d=" M 99.39 521.823 L 72.15 506.099 C 70.091 504.909 70.351 502.84 72.72 501.471 L 98.59 486.536 C 100.969 485.167 104.588 485.017 106.587 486.207 L 133.827 501.931 C 135.826 503.11 135.616 505.189 133.247 506.559 L 107.377 521.493 C 105.028 522.863 101.439 523.013 99.39 521.823 Z " fill="rgb(201,207,229)"/></g><linearGradient id="_lgradient_65" x1="0%" y1="50%" x2="100%" y2="50%"><stop offset="100%" stop-opacity="1" style="stop-color:rgb(234,239,245)"/><stop offset="100%" stop-opacity="1" style="stop-color:rgb(234,239,245)"/></linearGradient><path d=" M 135.246 491.055 C 135.256 490.972 135.256 490.888 135.246 490.805 L 135.246 276.357 L 70.771 276.357 L 70.771 491.105 C 70.826 491.975 71.356 492.744 72.15 493.104 L 99.39 508.838 C 101.439 510.017 105.028 509.838 107.387 508.498 L 133.247 493.564 C 134.26 493.127 135.003 492.231 135.246 491.155 L 135.246 491.155 L 135.246 491.055 Z " fill="url(#_lgradient_65)"/><path d=" M 99.39 294.26 L 72.15 278.536 C 70.091 277.356 70.351 275.287 72.72 273.918 L 98.59 258.973 C 100.969 257.604 104.588 257.464 106.587 258.644 L 133.847 274.368 C 135.846 275.557 135.636 277.626 133.267 278.996 L 107.397 293.93 C 105.028 295.26 101.439 295.449 99.39 294.26 Z " fill="rgb(255,255,255)"/><g opacity="0.5"><linearGradient id="_lgradient_66" x1="0%" y1="50%" x2="86.56642097802234%" y2="-0.06250851741064212%"><stop offset="100%" stop-opacity="1" style="stop-color:rgb(222,225,240)"/><stop offset="100%" stop-opacity="1" style="stop-color:rgb(223,226,240)"/></linearGradient><path d=" M 98.26 280.985 L 115.474 271.059 C 116.743 270.319 116.663 269.19 115.304 268.52 L 115.134 268.44 C 113.609 267.774 111.868 267.814 110.375 268.55 L 93.162 278.486 C 91.893 279.216 91.973 280.355 93.332 281.025 L 93.492 281.105 C 95.021 281.772 96.767 281.728 98.26 280.985 Z " fill="url(#_lgradient_66)"/></g><g id="Group"><path d=" M 125.89 204.514 L 125.89 204.514 L 121.791 202.295 L 121.791 202.295 C 118.282 200.456 113.524 200.826 108.286 203.854 C 97.51 210.072 88.774 225.136 88.774 237.502 C 88.774 243.769 91.023 248.128 94.641 250.107 L 94.641 250.107 L 98.56 252.276 L 98.66 252.326 L 99.01 252.516 L 99.01 252.516 C 102.498 254.265 107.197 253.855 112.365 250.877 C 123.131 244.659 131.867 229.595 131.867 217.229 C 131.877 210.852 129.578 206.454 125.89 204.514 Z " fill="rgb(219,56,41)"/><path d=" M 98.619 251.963 C 91.127 247.583 91.204 233.49 98.792 220.511 C 106.379 207.532 118.622 200.551 126.114 204.931 C 133.606 209.31 133.528 223.403 125.941 236.382 C 118.354 249.361 106.111 256.343 98.619 251.963 Z " fill="rgb(255,255,255)"/><path d=" M 112.365 232.953 C 110.206 234.213 108.446 233.203 108.446 230.714 C 108.601 227.963 110.056 225.451 112.365 223.947 C 114.534 222.687 116.293 223.697 116.293 226.186 C 116.139 228.94 114.68 231.454 112.365 232.953 Z " fill="rgb(255,97,97)"/><path d=" M 112.375 206.164 C 101.639 212.361 92.952 227.356 92.952 239.661 C 92.952 251.966 101.639 256.924 112.375 250.737 C 123.111 244.549 131.787 229.545 131.787 217.239 C 131.787 204.934 123.101 199.976 112.375 206.164 Z  M 112.375 246.718 C 103.578 251.796 96.451 247.718 96.451 237.642 C 96.451 227.565 103.578 215.26 112.375 210.182 C 121.171 205.104 128.249 209.172 128.249 219.289 C 128.249 229.405 121.161 241.64 112.375 246.718 Z " fill="rgb(255,97,97)"/><path d=" M 112.365 215.13 C 105.957 218.839 100.769 227.795 100.769 235.123 C 100.769 242.45 105.957 245.439 112.365 241.74 C 118.772 238.041 123.97 229.075 123.97 221.748 C 123.97 214.42 118.782 211.432 112.365 215.13 Z  M 112.365 238.121 C 107.687 240.82 103.898 238.661 103.898 233.293 C 103.898 227.925 107.687 221.378 112.365 218.679 C 117.043 215.98 120.841 218.139 120.841 223.507 C 120.841 228.875 117.053 235.472 112.365 238.171 L 112.365 238.121 Z " fill="rgb(255,97,97)"/><path d=" M 149.461 244.909 L 146.022 247.568 L 149.461 254.205 L 139.224 248.298 L 135.776 241.6 L 139.224 238.991 L 149.461 244.909 L 149.461 244.909 Z " fill="rgb(82,229,116)"/><linearGradient id="_lgradient_67" x1="0%" y1="50%" x2="100%" y2="50%"><stop offset="100%" stop-opacity="1" style="stop-color:rgb(234,239,245)"/><stop offset="100%" stop-opacity="1" style="stop-color:rgb(234,239,245)"/></linearGradient><path d=" M 149.121 248.278 L 149.121 250.457 L 112.665 229.715 C 112.328 229.522 112.121 229.163 112.125 228.775 L 112.125 228.635 C 112.127 228.345 112.282 228.078 112.532 227.932 C 112.783 227.787 113.091 227.784 113.344 227.925 L 149.121 248.278 Z " fill="url(#_lgradient_67)"/></g></g><g id="G_pillar-2"><g opacity="0.3"><path d=" M 59.275 589.537 L 2.877 556.97 C -1.382 554.52 -0.852 550.232 4.066 547.393 L 57.636 516.465 C 62.544 513.626 69.971 513.326 74.219 515.775 L 130.628 548.343 C 134.876 550.792 134.346 555.08 129.438 557.919 L 75.869 588.847 C 70.961 591.686 63.533 591.986 59.275 589.537 Z " fill="rgb(201,207,229)"/></g><linearGradient id="_lgradient_68" x1="0%" y1="50%" x2="100%" y2="50%"><stop offset="100%" stop-opacity="1" style="stop-color:rgb(234,239,245)"/><stop offset="100%" stop-opacity="1" style="stop-color:rgb(234,239,245)"/></linearGradient><path d=" M 133.487 530.83 C 133.497 530.656 133.497 530.483 133.487 530.31 L 133.487 407.737 L 0.018 407.737 L 0.018 530.929 C 0.018 532.479 0.957 533.928 2.887 535.078 L 59.275 567.635 C 63.523 570.095 70.951 569.785 75.859 566.946 L 129.438 536.018 C 131.917 534.588 133.277 532.779 133.437 531.019 L 133.437 531.019 L 133.487 530.83 Z " fill="url(#_lgradient_68)"/><path d=" M 59.275 444.812 L 2.887 412.215 C -1.372 409.756 -0.842 405.467 4.076 402.639 L 57.646 371.7 C 62.554 368.871 69.981 368.562 74.229 371.021 L 130.638 403.578 C 134.886 406.037 134.356 410.326 129.448 413.154 L 75.869 444.093 C 70.961 446.962 63.533 447.271 59.275 444.812 Z " fill="rgb(255,255,255)"/><g opacity="0.5"><linearGradient id="_lgradient_69" x1="0%" y1="50%" x2="86.37789008984328%" y2="-0.3871025524087246%"><stop offset="0%" stop-opacity="1" style="stop-color:rgb(234,239,245)"/></linearGradient><path d=" M 53.277 414.624 L 82.006 398.04 C 84.126 396.821 84.116 395.131 82.006 394.262 L 81.756 394.162 C 79.207 393.334 76.431 393.572 74.059 394.822 L 45.34 411.395 C 43.221 412.625 43.231 414.314 45.34 415.174 L 45.59 415.284 C 48.137 416.11 50.909 415.873 53.277 414.624 L 53.277 414.624 Z " fill="url(#_lgradient_69)"/></g><g id="Group"><path d=" M 75.709 371.473 C 75.709 371.473 71.57 371.963 69.521 371.953 C 63.773 381.849 55.447 386.027 53.427 380.11 C 61.494 373.702 68.981 366.735 76.988 360.367 C 77.236 357.8 76.733 355.216 75.539 352.93 L 76.209 351.411 L 71.91 349.581 L 71.91 349.581 C 69.611 348.582 66.662 348.582 63.364 349.821 C 54.917 353.06 46.51 363.906 44.371 374.272 C 42.082 385.408 46.16 392.755 56.796 393.664 C 63.793 394.254 79.517 373.352 79.517 373.352 L 75.709 371.473 Z  M 58.166 361.227 C 62.474 357.488 67.162 357.158 69.341 360.567 L 52.718 373.722 C 52.632 368.963 54.621 364.403 58.166 361.227 L 58.166 361.227 Z " fill="rgb(255,65,48)"/><path d=" M 81.367 362.226 L 57.246 381.399 C 59.245 387.317 67.592 383.138 73.33 373.232 C 75.329 373.232 77.448 373.342 79.547 373.352 C 76.309 383.058 66.712 392.215 58.715 393.504 C 50.718 394.794 46.46 387.217 48.719 376.131 C 50.848 365.755 59.255 354.919 67.712 351.67 C 75.889 348.532 81.916 353.09 81.367 362.226 Z  M 72.79 362.396 C 70.631 358.978 66.792 359.397 62.514 363.096 C 58.635 366.475 56.206 371.173 56.206 375.531 L 72.79 362.396 Z " fill="rgb(255,97,97)"/></g></g></g><g id="Browser_window"><path d=" M 206.609 502.68 C 208.086 503.241 209.737 503.109 211.107 502.32 L 475.726 350.239 C 477.385 349.239 477.375 347.969 475.726 347.3 L 423.816 317.081 C 421.826 316.45 419.666 316.641 417.818 317.611 L 154.239 469.103 C 153.658 469.436 153.321 470.074 153.375 470.742 C 153.428 471.409 153.862 471.986 154.489 472.222 L 206.609 502.68 Z " fill="rgb(219,219,219)"/><path d=" M 471.987 143.018 L 468.189 149.015 L 465.4 152.534 L 465.4 339.243 C 465.292 341.126 464.288 342.843 462.701 343.861 L 207.718 490.125 L 212.816 494.353 L 207.658 500.231 L 199.581 495.233 L 199.581 495.233 C 199.196 494.825 199 494.273 199.042 493.714 L 199.042 294.87 C 199.323 289.983 201.923 285.525 206.039 282.874 L 458.382 138.09 C 460.542 136.85 462.471 136.85 463.75 137.86 L 463.75 137.86 L 471.987 143.018 Z " fill="rgb(219,219,219)"/><path d=" M 471.987 143.018 L 468.189 149.015 L 465.4 152.534 L 465.4 168.248 L 206.989 316.481 L 199.052 312.733 L 199.052 294.87 C 199.333 289.983 201.933 285.525 206.049 282.874 L 458.382 138.09 C 460.542 136.85 462.471 136.85 463.75 137.86 L 463.75 137.86 L 471.987 143.018 Z " fill="rgb(59,55,120)"/><path d=" M 473.337 146.966 L 473.337 345.78 C 473.231 347.664 472.232 349.384 470.648 350.408 L 209.678 500.181 C 208.198 501.031 206.999 500.341 206.999 498.642 L 206.999 299.778 C 207.278 294.89 209.879 290.432 213.996 287.782 L 466.329 142.998 C 470.198 140.779 473.337 142.548 473.337 146.966 Z " fill="rgb(255,255,255)"/><path d=" M 473.337 146.956 L 473.337 163.44 L 206.999 316.252 L 206.999 299.768 C 207.278 294.88 209.879 290.422 213.996 287.772 L 466.329 142.978 C 470.198 140.769 473.337 142.538 473.337 146.956 Z " fill="rgb(107,96,153)"/><g id="Group"><path d=" M 221.353 296.589 L 222.503 294.35 L 220.503 293.35 L 220.503 293.35 C 219.76 293.029 218.903 293.12 218.244 293.59 C 216.339 294.815 215.135 296.877 215.005 299.138 C 214.917 299.965 215.304 300.77 216.005 301.217 L 216.005 301.217 L 218.174 302.287 L 219.524 299.918 C 220.405 298.981 221.035 297.835 221.353 296.589 L 221.353 296.589 Z " fill="rgb(207,199,255)"/><path d=" M 218.045 302.264 C 216.796 301.524 216.82 299.174 218.096 297.019 C 219.373 294.865 221.423 293.716 222.672 294.455 C 223.92 295.195 223.897 297.545 222.62 299.7 C 221.343 301.855 219.293 303.004 218.045 302.264 Z " fill="rgb(255,255,255)"/></g><g id="Group"><path d=" M 232.089 290.721 L 233.249 288.472 L 231.249 287.473 L 231.249 287.473 C 230.503 287.147 229.641 287.238 228.98 287.712 C 227.079 288.935 225.879 290.994 225.751 293.25 C 225.661 294.08 226.048 294.889 226.751 295.34 L 226.751 295.34 L 228.92 296.409 L 230.26 294.04 C 231.145 293.109 231.775 291.966 232.089 290.721 L 232.089 290.721 Z " fill="rgb(207,199,255)"/><path d=" M 228.791 296.395 C 227.542 295.656 227.566 293.306 228.843 291.151 C 230.12 288.996 232.17 287.847 233.418 288.587 C 234.666 289.327 234.643 291.677 233.366 293.831 C 232.089 295.986 230.039 297.135 228.791 296.395 Z " fill="rgb(255,255,255)"/></g><g id="Group"><path d=" M 242.345 284.674 L 243.495 282.424 L 241.495 281.425 L 241.495 281.425 C 240.753 281.099 239.894 281.19 239.236 281.665 C 237.33 282.884 236.126 284.944 235.997 287.203 C 235.906 288.03 236.294 288.836 236.997 289.282 L 236.997 289.282 L 239.166 290.351 L 240.516 287.982 C 241.392 287.049 242.021 285.912 242.345 284.674 L 242.345 284.674 Z " fill="rgb(207,199,255)"/><path d=" M 239.037 290.346 C 237.789 289.606 237.812 287.256 239.089 285.101 C 240.366 282.946 242.416 281.797 243.665 282.537 C 244.913 283.277 244.89 285.627 243.613 287.781 C 242.336 289.936 240.286 291.085 239.037 290.346 Z " fill="rgb(255,255,255)"/></g><g id="Group"><path d=" M 386.052 328.729 L 386.052 328.729 L 379.531 325.486 L 379.531 325.486 C 378.601 325.09 377.533 325.202 376.705 325.781 L 283.58 379.176 C 280.766 381.173 279.077 384.396 279.036 387.847 L 279.036 387.847 C 278.868 389.273 279.494 390.677 280.667 391.506 L 280.667 391.506 L 287.343 394.801 L 287.343 394.801 C 288.256 395.14 289.276 395.017 290.083 394.471 L 383.19 341.059 C 386.009 339.066 387.699 335.84 387.734 332.388 C 387.899 330.95 387.25 329.54 386.052 328.729 L 386.052 328.729 Z " fill="rgb(207,199,255)"/><path d=" M 450.996 272.715 L 450.996 272.715 L 444.285 268.727 L 444.285 268.727 C 441.424 266.993 437.678 267.149 433.568 269.507 L 274.666 360.638 C 265.683 365.84 258.382 379.714 258.382 391.541 C 258.382 398.044 260.568 402.605 264.001 404.581 L 264.001 404.581 L 271.094 408.761 C 273.955 410.356 277.632 410.2 281.69 407.894 L 440.574 316.763 C 449.574 311.561 456.858 297.687 456.858 285.86 L 456.858 285.86 C 456.789 279.253 454.534 274.64 450.996 272.715 Z " fill="rgb(207,199,255)"/><path d=" M 440.505 316.781 L 281.62 407.911 C 272.62 413.114 265.319 407.582 265.319 395.668 L 265.319 395.668 C 265.319 383.771 272.62 369.933 281.62 364.765 L 440.505 273.635 C 449.505 268.432 456.789 273.964 456.789 285.878 L 456.789 285.878 C 456.789 297.791 449.505 311.63 440.505 316.781 Z " fill="rgb(242,243,247)"/><path d=" M 383.208 341.042 L 290.1 394.437 C 287.586 395.876 285.54 394.35 285.54 390.968 L 285.54 390.968 C 285.581 387.514 287.277 384.289 290.1 382.297 L 383.208 328.885 C 385.722 327.446 387.751 328.972 387.751 332.353 L 387.751 332.353 C 387.722 335.812 386.031 339.045 383.208 341.042 Z " fill="rgb(229,224,255)"/><linearGradient id="_lgradient_70" x1="-21.703164798591246%" y1="113.14050426886072%" x2="113.9923235215754%" y2="-6.3122734445340445%"><stop offset="2%" stop-opacity="1" style="stop-color:rgb(255,162,48)"/><stop offset="100%" stop-opacity="1" style="stop-color:rgb(246,93,27)"/></linearGradient><path d=" M 453.615 278.802 L 453.615 278.802 L 450.355 277.068 L 450.355 277.068 C 447.563 275.629 443.782 275.906 439.62 278.299 C 431.053 283.207 424.117 295.104 424.117 304.867 C 424.117 309.809 425.851 313.26 428.782 314.821 L 428.782 314.821 L 431.921 316.555 L 431.921 316.555 L 432.198 316.694 L 432.198 316.694 C 434.973 318.064 438.701 317.752 442.811 315.393 C 451.378 310.486 458.315 298.589 458.315 288.843 C 458.367 283.797 456.546 280.328 453.615 278.802 Z " fill="url(#_lgradient_70)"/><linearGradient id="_lgradient_71" x1="0%" y1="50%" x2="90.24372731114873%" y2="93.08212716418525%"><stop offset="100%" stop-opacity="1" style="stop-color:rgb(246,93,27)"/><stop offset="100%" stop-opacity="1" style="stop-color:rgb(247,98,28)"/></linearGradient><path d=" M 431.8 316.486 C 425.822 312.944 425.937 301.685 432.055 291.359 C 438.174 281.034 447.995 275.527 453.973 279.069 C 459.951 282.612 459.836 293.871 453.718 304.196 C 447.599 314.522 437.778 320.029 431.8 316.486 Z " fill="url(#_lgradient_71)"/><path d=" M 452.401 301.295 L 450.667 300.341 L 450.58 300.341 L 449.349 299.63 C 451.083 295.676 450.927 291.739 448.707 290.352 L 448.707 290.352 L 448.707 290.352 L 448.707 290.352 L 448.707 290.352 L 447.112 289.433 L 446.99 289.346 C 444.372 287.872 440.054 290.317 437.47 294.809 C 434.886 299.3 434.851 304.139 437.47 305.647 L 437.47 305.647 L 439.204 306.688 C 441.545 308.023 445.204 306.202 447.875 302.612 L 450.875 304.347 C 451.326 304.607 452.072 304.173 452.609 303.393 C 453.147 302.612 452.852 301.555 452.401 301.295 Z  M 445.204 299.057 C 443.8 301.468 441.736 302.977 440.002 302.89 C 439.165 300.791 439.46 298.41 440.782 296.578 C 442.187 294.167 444.25 292.658 445.985 292.745 C 446.869 294.15 446.609 296.699 445.204 299.057 Z " fill="rgb(211,211,211)"/><path d=" M 452.401 301.295 L 449.401 299.56 C 451.135 295.52 450.979 291.496 448.638 290.178 C 446.019 288.687 441.701 291.132 439.117 295.624 C 436.533 300.115 436.499 304.988 439.117 306.48 C 441.458 307.815 445.118 305.994 447.788 302.404 L 450.788 304.139 C 451.239 304.399 451.985 303.965 452.522 303.185 C 453.06 302.404 452.852 301.555 452.401 301.295 Z  M 440.782 303.67 C 439.048 302.699 439.048 299.526 440.782 296.612 C 442.516 293.699 445.274 292.086 446.973 293.144 C 448.673 294.202 448.707 297.271 446.973 300.202 C 445.239 303.133 442.568 304.641 440.834 303.67 L 440.782 303.67 Z " fill="rgb(255,255,255)"/></g></g><g id="checklist"><g id="Group"><path d=" M 732.288 431.428 L 643.052 480.289 C 640.733 481.558 637.234 481.698 635.235 480.599 L 510.443 412.295 C 508.443 411.205 508.693 409.296 511.002 408.016 L 600.268 359.155 C 602.587 357.886 606.086 357.746 608.085 358.845 L 732.848 427.149 C 734.847 428.209 734.597 430.208 732.288 431.428 Z " fill="rgb(219,219,219)"/><linearGradient id="_lgradient_72" x1="48.288087517553045%" y1="49.169360891965084%" x2="83.56494674501688%" y2="66.06553475456356%"><stop offset="0%" stop-opacity="1" style="stop-color:rgb(255,130,163)"/><stop offset="100%" stop-opacity="1" style="stop-color:rgb(247,62,105)"/></linearGradient><path d=" M 734.197 410.585 L 728.299 410.585 L 728.299 411.685 L 608.065 345.88 C 606.066 344.781 602.567 344.881 600.248 346.18 L 514.641 393.052 L 514.641 392.053 L 509.103 392.053 L 509.103 397.48 L 509.103 397.48 C 509.158 398.313 509.681 399.042 510.453 399.36 L 635.215 467.664 C 637.214 468.763 640.713 468.663 643.032 467.354 L 732.298 418.482 C 733.577 417.783 734.217 416.893 734.207 416.043 L 734.207 416.043 L 734.197 410.585 Z " fill="url(#_lgradient_72)"/><linearGradient id="_lgradient_73" x1="0%" y1="50%" x2="100%" y2="50%"><stop offset="100%" stop-opacity="1" style="stop-color:rgb(247,62,105)"/><stop offset="100%" stop-opacity="1" style="stop-color:rgb(247,62,105)"/></linearGradient><path d=" M 732.288 413.025 L 643.052 461.896 C 640.625 463.167 637.755 463.281 635.235 462.206 L 510.443 393.902 C 508.443 392.802 508.693 390.903 511.002 389.623 L 600.268 340.752 C 602.695 339.481 605.565 339.367 608.085 340.442 L 732.848 408.746 C 734.847 409.846 734.597 411.755 732.288 413.025 Z " fill="url(#_lgradient_73)"/><path d=" M 722.751 412.215 L 641.472 456.708 C 638.893 458.127 634.975 458.277 632.746 457.058 L 515.89 393.082 C 513.651 391.853 513.891 389.713 516.51 388.304 L 597.789 343.811 C 600.368 342.392 604.277 342.242 606.516 343.461 L 723.371 407.437 C 725.61 408.626 725.33 410.765 722.751 412.215 Z " fill="rgb(239,239,239)"/><path d=" M 718.393 409.796 L 637.124 454.289 C 634.535 455.708 630.627 455.858 628.387 454.639 L 515.701 392.942 C 513.461 391.713 513.701 389.574 516.33 388.164 L 597.599 343.671 C 600.188 342.252 604.097 342.102 606.336 343.321 L 719.023 405.018 C 721.262 406.217 721.022 408.386 718.393 409.796 Z " fill="rgb(255,255,255)"/><g id="Group"><path d=" M 595.07 349.889 L 595.07 349.809 L 595.07 349.809 C 594.985 349.229 594.607 348.734 594.071 348.499 L 585.074 343.591 C 583.512 342.847 581.698 342.847 580.136 343.591 L 564.732 352.028 L 564.672 352.028 C 560.074 349.509 552.676 349.499 548.088 352.028 C 545.819 353.267 544.689 354.907 544.679 356.536 L 544.679 356.536 L 544.679 359.215 L 544.679 359.215 C 544.727 360.369 545.234 361.457 546.089 362.234 L 532.794 369.511 C 532.215 369.742 531.825 370.289 531.794 370.911 L 531.794 373.51 C 531.833 374.131 532.22 374.677 532.794 374.919 L 541.791 379.827 C 543.351 380.578 545.168 380.578 546.729 379.827 L 594.071 353.917 C 594.64 353.68 595.027 353.143 595.07 352.528 L 595.07 349.889 Z  M 560.483 358.725 C 557.937 359.931 554.983 359.931 552.437 358.725 L 552.377 358.725 C 551.949 358.505 551.566 358.206 551.247 357.846 C 551.56 357.497 551.932 357.206 552.347 356.986 C 554.914 355.761 557.896 355.761 560.463 356.986 L 560.463 356.986 C 560.869 357.202 561.234 357.486 561.543 357.826 C 561.23 358.19 560.854 358.494 560.433 358.725 L 560.483 358.725 Z " fill="rgb(171,176,184)"/><path d=" M 580.076 343.571 L 564.672 352.008 L 564.612 352.008 C 560.014 349.489 552.616 349.479 548.028 352.008 C 543.44 354.537 543.49 358.565 548.028 361.084 L 548.088 361.084 L 532.684 369.521 C 531.325 370.271 531.335 371.52 532.684 372.23 L 541.681 377.128 C 543.24 377.883 545.059 377.883 546.619 377.128 L 594.011 351.238 C 595.37 350.498 595.37 349.289 594.011 348.539 L 585.014 343.631 C 583.461 342.867 581.647 342.845 580.076 343.571 Z  M 552.307 358.715 C 550.057 357.486 550.047 355.497 552.307 354.277 C 554.873 353.048 557.857 353.048 560.423 354.277 L 560.423 354.277 C 562.613 355.507 562.603 357.476 560.423 358.685 C 557.877 359.891 554.923 359.891 552.377 358.685 L 552.307 358.715 Z " fill="rgb(199,208,219)"/></g></g><g id="Group"><path d=" M 546.949 394.222 C 546.761 394.152 546.636 393.973 546.636 393.772 C 546.636 393.571 546.761 393.392 546.949 393.322 L 556.875 387.584 C 557.362 387.34 557.937 387.34 558.424 387.584 L 568.42 393.352 L 568.42 393.352 C 568.85 393.592 568.85 393.992 568.42 394.242 L 558.494 399.98 C 558.01 400.224 557.439 400.224 556.955 399.98 L 546.959 394.222 L 546.949 394.222 Z  M 557.645 388.934 L 549.258 393.772 L 557.704 398.65 L 566.091 393.802 L 557.645 388.934 Z " fill="rgb(59,55,120)"/><path d=" M 552.816 394.831 C 552.707 394.773 552.614 394.687 552.546 394.582 C 552.367 394.242 552.676 393.892 553.256 393.782 C 554.548 393.573 555.861 393.523 557.165 393.632 C 555.354 391.374 555.24 388.196 556.885 385.815 C 557.25 385.447 557.787 385.309 558.284 385.455 C 558.854 385.575 559.144 385.945 558.934 386.265 C 555.995 390.783 560.314 394.422 560.363 394.462 C 560.673 394.712 560.613 395.051 560.234 395.271 C 559.797 395.492 559.287 395.513 558.834 395.331 C 557.249 394.828 555.566 394.711 553.926 394.991 C 553.549 395.061 553.159 395.005 552.816 394.831 Z " fill="rgb(31,212,80)"/></g><g id="Group"><path d=" M 566.171 405.317 C 565.741 405.068 565.741 404.668 566.171 404.428 L 576.097 398.69 C 576.584 398.441 577.16 398.441 577.647 398.69 L 587.643 404.458 L 587.643 404.458 C 588.073 404.708 588.073 405.108 587.643 405.347 L 577.717 411.085 C 577.23 411.334 576.654 411.334 576.167 411.085 L 566.171 405.317 Z  M 576.867 400.03 L 568.49 404.878 L 576.937 409.746 L 585.314 404.898 L 576.867 400.03 Z " fill="rgb(59,55,120)"/><path d=" M 572.079 405.937 C 571.969 405.877 571.879 405.787 571.819 405.677 C 571.629 405.347 571.939 404.988 572.519 404.888 C 573.81 404.674 575.123 404.62 576.427 404.728 C 574.615 402.475 574.501 399.298 576.147 396.921 C 576.514 396.549 577.055 396.407 577.557 396.551 C 578.117 396.681 578.407 397.041 578.197 397.371 C 575.268 401.889 579.586 405.527 579.626 405.557 C 579.936 405.817 579.886 406.157 579.506 406.367 C 579.068 406.592 578.553 406.614 578.097 406.427 C 576.51 405.929 574.829 405.813 573.189 406.087 C 572.812 406.164 572.421 406.111 572.079 405.937 L 572.079 405.937 Z " fill="rgb(31,212,80)"/></g><g id="Group"><path d=" M 586.324 416.953 C 585.894 416.703 585.894 416.303 586.324 416.063 L 596.25 410.326 C 596.489 410.196 596.758 410.131 597.029 410.136 C 597.298 410.133 597.563 410.199 597.799 410.326 L 607.795 416.093 L 607.795 416.093 C 608.225 416.343 608.225 416.743 607.795 416.983 L 597.869 422.721 C 597.632 422.846 597.367 422.907 597.099 422.901 C 596.829 422.907 596.56 422.846 596.32 422.721 L 586.324 416.953 Z  M 597.019 411.665 L 588.643 416.513 L 597.089 421.381 L 605.466 416.533 L 597.019 411.665 Z " fill="rgb(59,55,120)"/><path d=" M 592.191 417.563 C 592.08 417.51 591.989 417.422 591.931 417.313 C 591.741 416.983 592.051 416.623 592.631 416.523 C 593.922 416.309 595.235 416.255 596.54 416.363 C 594.728 414.11 594.614 410.933 596.26 408.556 C 596.627 408.185 597.167 408.043 597.669 408.186 C 598.229 408.316 598.519 408.676 598.309 409.006 C 595.39 413.494 599.698 417.163 599.738 417.193 C 600.048 417.453 599.988 417.793 599.608 418.003 C 599.172 418.223 598.662 418.245 598.209 418.063 C 596.623 417.565 594.941 417.448 593.301 417.723 C 592.924 417.801 592.531 417.745 592.191 417.563 L 592.191 417.563 Z " fill="rgb(31,212,80)"/></g><g id="Group"><path d=" M 606.476 428.589 C 606.046 428.339 606.046 427.939 606.476 427.699 L 616.402 421.961 C 616.888 421.712 617.465 421.712 617.951 421.961 L 627.948 427.729 L 627.948 427.729 C 628.377 427.979 628.377 428.379 627.948 428.619 L 618.061 434.356 C 617.574 434.601 617 434.601 616.512 434.356 L 606.516 428.589 L 606.476 428.589 Z  M 617.172 423.301 L 608.795 428.149 L 617.242 433.017 L 625.619 428.169 L 617.172 423.301 Z " fill="rgb(59,55,120)"/><path d=" M 612.344 429.208 C 612.234 429.152 612.144 429.065 612.084 428.958 C 611.894 428.629 612.204 428.269 612.783 428.169 C 614.075 427.955 615.388 427.901 616.692 428.009 C 614.88 425.756 614.766 422.579 616.412 420.202 C 616.779 419.83 617.319 419.689 617.822 419.832 C 618.381 419.952 618.671 420.322 618.461 420.652 C 615.542 425.14 619.851 428.809 619.891 428.838 C 620.201 429.098 620.141 429.438 619.761 429.648 C 619.325 429.868 618.815 429.89 618.361 429.708 C 616.775 429.21 615.093 429.094 613.453 429.368 C 613.076 429.442 612.685 429.386 612.344 429.208 L 612.344 429.208 Z " fill="rgb(31,212,80)"/></g><g id="Group"><path d=" M 625.379 439.504 C 625.191 439.435 625.066 439.255 625.066 439.055 C 625.066 438.854 625.191 438.675 625.379 438.605 L 635.305 432.877 C 635.791 432.628 636.368 432.628 636.854 432.877 L 646.85 438.645 L 646.85 438.645 C 647.041 438.71 647.169 438.888 647.169 439.09 C 647.169 439.291 647.041 439.47 646.85 439.534 L 636.924 445.272 C 636.437 445.517 635.862 445.517 635.375 445.272 L 625.379 439.514 L 625.379 439.504 Z  M 636.055 434.206 L 627.678 439.045 L 636.125 443.923 L 644.501 439.075 L 636.055 434.206 Z " fill="rgb(59,55,120)"/><path d=" M 631.246 440.114 C 631.137 440.055 631.044 439.969 630.976 439.864 C 630.797 439.534 631.106 439.175 631.686 439.065 C 632.978 438.857 634.291 438.806 635.595 438.915 C 633.781 436.658 633.667 433.478 635.315 431.098 C 635.684 430.73 636.224 430.592 636.724 430.738 C 637.284 430.858 637.574 431.228 637.364 431.547 C 634.425 436.066 638.754 439.704 638.794 439.744 C 639.103 439.994 639.053 440.334 638.674 440.554 C 638.234 440.773 637.721 440.795 637.264 440.614 C 635.679 440.11 633.996 439.994 632.356 440.274 C 631.979 440.344 631.589 440.288 631.246 440.114 L 631.246 440.114 Z " fill="rgb(31,212,80)"/></g><g opacity="0.3"><path d=" M 599.698 368.472 L 572.209 384.336 C 571.701 384.617 571.09 384.642 570.56 384.405 L 568.51 383.226 C 568.081 382.986 568.141 382.556 568.63 382.276 L 596.07 366.392 C 596.578 366.11 597.191 366.088 597.719 366.332 L 599.718 367.512 C 600.238 367.762 600.188 368.232 599.698 368.472 Z " fill="rgb(70,86,109)"/></g><g opacity="0.3"><path d=" M 614.063 360.235 L 604.517 365.743 C 604.008 366.024 603.398 366.05 602.867 365.813 L 600.808 364.623 C 600.388 364.383 600.438 363.953 600.928 363.673 L 610.474 358.156 C 610.986 357.873 611.603 357.851 612.134 358.096 L 614.183 359.275 C 614.553 359.495 614.503 359.915 614.063 360.235 Z " fill="rgb(70,86,109)"/></g><g opacity="0.3"><path d=" M 606.336 385.095 L 589.932 394.562 C 589.427 394.852 588.811 394.878 588.283 394.632 L 586.234 393.452 C 585.804 393.202 585.864 392.772 586.344 392.452 L 602.757 382.986 C 603.263 382.695 603.878 382.669 604.407 382.916 L 606.406 384.096 C 606.886 384.385 606.826 384.815 606.336 385.095 Z " fill="rgb(70,86,109)"/></g><g opacity="0.3"><path d=" M 620.79 376.748 L 611.244 382.226 C 610.732 382.508 610.118 382.533 609.585 382.296 L 607.585 381.107 C 607.166 380.867 607.216 380.437 607.705 380.157 L 617.252 374.639 C 617.76 374.358 618.371 374.332 618.901 374.569 L 620.95 375.759 C 621.33 376.039 621.27 376.469 620.79 376.748 Z " fill="rgb(70,86,109)"/></g><g opacity="0.3"><path d=" M 633.196 393.462 L 610.604 406.457 C 610.099 406.748 609.483 406.774 608.955 406.527 L 606.956 405.347 C 606.526 405.098 606.586 404.678 607.076 404.348 L 629.657 391.353 C 630.164 391.067 630.777 391.041 631.306 391.283 L 633.366 392.462 C 633.735 392.752 633.685 393.222 633.196 393.462 Z " fill="rgb(70,86,109)"/></g><g opacity="0.3"><path d=" M 639.963 389.574 L 637.624 390.923 C 637.116 391.204 636.505 391.23 635.975 390.993 L 633.915 389.803 C 633.496 389.564 633.546 389.134 634.035 388.854 L 636.374 387.504 C 636.886 387.223 637.5 387.197 638.034 387.434 L 640.033 388.624 C 640.503 388.864 640.453 389.294 639.963 389.574 Z " fill="rgb(70,86,109)"/></g><g opacity="0.3"><path d=" M 642.992 410.775 L 630.497 417.983 C 629.991 418.273 629.376 418.299 628.847 418.053 L 626.848 416.873 C 626.418 416.623 626.478 416.193 626.968 415.873 L 639.453 408.666 C 639.965 408.385 640.579 408.359 641.113 408.596 L 643.112 409.786 C 643.532 410.066 643.482 410.496 642.992 410.775 Z " fill="rgb(70,86,109)"/></g><g opacity="0.3"><path d=" M 652.698 405.218 L 647.03 408.516 C 646.525 408.807 645.909 408.833 645.381 408.586 L 643.332 407.407 C 642.902 407.157 642.962 406.737 643.452 406.407 L 649.11 403.108 C 649.621 402.827 650.235 402.801 650.769 403.038 L 652.768 404.228 C 653.238 404.458 653.188 404.888 652.698 405.218 Z " fill="rgb(70,86,109)"/></g><g opacity="0.3"><path d=" M 672.161 393.932 L 656.167 403.138 C 655.659 403.419 655.048 403.445 654.517 403.208 L 652.518 402.019 C 652.088 401.779 652.148 401.349 652.638 401.069 L 668.572 391.863 C 669.08 391.582 669.691 391.556 670.221 391.793 L 672.281 392.982 C 672.701 393.222 672.651 393.652 672.161 393.932 Z " fill="rgb(70,86,109)"/></g><g opacity="0.3"><path d=" M 673.35 416.213 L 650.359 429.468 C 649.854 429.759 649.238 429.785 648.71 429.538 L 646.66 428.359 C 646.241 428.109 646.291 427.679 646.78 427.359 L 669.772 414.104 C 670.28 413.823 670.891 413.797 671.421 414.034 L 673.42 415.224 C 673.9 415.504 673.84 415.933 673.35 416.213 Z " fill="rgb(70,86,109)"/></g><g opacity="0.3"><path d=" M 685.456 409.216 L 677.659 413.714 C 677.153 414.005 676.538 414.031 676.009 413.784 L 673.96 412.605 C 673.53 412.355 673.59 411.925 674.08 411.605 L 681.877 407.107 C 682.385 406.826 682.996 406.8 683.526 407.037 L 685.526 408.226 C 686.035 408.516 685.945 408.946 685.456 409.216 Z " fill="rgb(70,86,109)"/></g></g><g id="content"><path d=" M 608.665 504.819 L 516.3 558.159 C 512.712 560.228 507.304 560.458 504.185 558.659 L 379.233 486.526 C 376.124 484.737 376.514 481.608 380.102 479.529 L 472.487 426.21 C 476.066 424.14 481.484 423.91 484.602 425.7 L 609.555 497.842 C 612.643 499.621 612.254 502.75 608.665 504.819 Z " fill="rgb(219,219,219)"/><path d=" M 608.665 493.184 L 516.3 546.514 C 512.712 548.583 507.304 548.813 504.185 547.013 L 379.233 474.881 C 376.124 473.092 376.514 469.963 380.102 467.884 L 472.467 414.554 C 476.046 412.485 481.464 412.255 484.582 414.054 L 609.535 486.187 C 612.643 487.956 612.254 491.085 608.665 493.184 Z " fill="rgb(242,243,247)"/><g id="Group"><g id="Group"><path d=" M 478.165 463.125 L 463.171 471.762 C 462.027 472.406 460.644 472.462 459.452 471.912 L 459.322 471.842 C 458.322 471.292 458.492 470.333 459.592 469.693 L 474.586 461.056 C 475.734 460.415 477.117 460.356 478.315 460.896 L 478.435 460.966 C 479.384 461.526 479.264 462.486 478.165 463.125 Z " fill="rgb(194,214,236)"/><path d=" M 501.476 449.661 L 486.482 458.297 C 485.335 458.94 483.951 458.999 482.753 458.457 L 482.633 458.387 C 481.684 457.827 481.804 456.868 482.903 456.228 L 497.897 447.591 C 499.045 446.947 500.431 446.892 501.626 447.441 L 501.746 447.511 C 502.706 448.061 502.586 449.021 501.476 449.661 Z " fill="rgb(194,214,236)"/><path d=" M 439.31 485.627 L 435.561 487.796 C 434.411 488.431 433.03 488.486 431.833 487.946 L 431.713 487.876 C 430.713 487.326 430.873 486.357 431.983 485.727 L 435.731 483.558 C 436.88 482.918 438.264 482.863 439.46 483.408 L 439.58 483.478 C 440.539 484.027 440.419 484.987 439.31 485.627 Z " fill="rgb(194,214,236)"/><path d=" M 455.464 476.3 L 447.227 481.059 C 446.08 481.703 444.693 481.758 443.498 481.208 L 443.378 481.139 C 442.379 480.589 442.539 479.629 443.648 478.989 L 451.885 474.231 C 453.031 473.597 454.41 473.541 455.604 474.081 L 455.733 474.151 C 456.683 474.701 456.563 475.661 455.464 476.3 Z " fill="rgb(194,214,236)"/></g><g id="Group"><path d=" M 437.36 458.707 L 432.552 461.476 C 431.405 462.119 430.021 462.178 428.824 461.636 L 428.704 461.566 C 427.704 461.016 427.874 460.047 428.974 459.417 L 433.772 456.638 C 434.922 456.005 436.303 455.949 437.5 456.488 L 437.62 456.558 C 438.58 457.108 438.46 458.067 437.36 458.707 Z " fill="rgb(194,214,236)"/><path d=" M 485.562 430.878 L 464.12 443.263 C 462.977 443.905 461.596 443.965 460.402 443.423 L 460.272 443.353 C 459.272 442.793 459.442 441.834 460.542 441.194 L 481.993 428.809 C 483.144 428.176 484.525 428.12 485.722 428.659 L 485.842 428.729 C 486.782 429.278 486.662 430.208 485.562 430.878 Z " fill="rgb(194,214,236)"/><path d=" M 455.703 448.111 L 445.807 453.829 C 444.66 454.47 443.277 454.529 442.079 453.989 L 441.959 453.919 C 440.959 453.359 441.119 452.399 442.219 451.76 L 452.125 446.052 C 453.272 445.409 454.656 445.35 455.853 445.892 L 455.973 445.962 C 456.923 446.512 456.803 447.481 455.703 448.111 Z " fill="rgb(194,214,236)"/></g><g id="Group"><path d=" M 490.89 436.116 L 460.122 453.879 C 458.972 454.513 457.59 454.569 456.393 454.029 L 456.273 453.959 C 455.324 453.409 455.444 452.449 456.543 451.81 L 487.301 434.047 C 488.451 433.412 489.833 433.356 491.03 433.897 L 491.15 433.967 C 492.11 434.516 491.99 435.486 490.89 436.116 Z " fill="rgb(194,214,236)"/><path d=" M 451.635 458.777 L 439.74 465.644 C 438.596 466.287 437.215 466.346 436.021 465.804 L 435.891 465.734 C 434.891 465.185 435.061 464.215 436.161 463.575 L 448.056 456.718 C 449.203 456.075 450.587 456.016 451.785 456.558 L 451.905 456.628 C 452.865 457.198 452.745 458.197 451.635 458.777 Z " fill="rgb(194,214,236)"/></g><g id="Group"><path d=" M 450.945 488.186 L 443.318 492.594 C 442.17 493.233 440.786 493.289 439.59 492.744 L 439.47 492.674 C 438.47 492.124 438.63 491.165 439.74 490.525 L 447.367 486.117 C 448.515 485.477 449.899 485.422 451.095 485.967 L 451.215 486.037 C 452.175 486.556 452.055 487.516 450.945 488.186 Z " fill="rgb(194,214,236)"/><path d=" M 514.651 451.38 L 485.012 468.493 C 483.862 469.128 482.481 469.183 481.284 468.643 L 481.164 468.573 C 480.214 468.024 480.334 467.054 481.434 466.424 L 511.102 449.311 C 512.249 448.667 513.636 448.611 514.831 449.161 L 514.951 449.231 C 515.87 449.78 515.751 450.74 514.651 451.38 Z " fill="rgb(194,214,236)"/><path d=" M 475.196 474.191 L 460.832 482.478 C 459.684 483.119 458.301 483.178 457.103 482.638 L 456.983 482.568 C 455.983 482.018 456.143 481.049 457.243 480.419 L 471.617 472.122 C 472.764 471.479 474.148 471.42 475.346 471.962 L 475.466 472.032 C 476.416 472.562 476.296 473.521 475.196 474.191 Z " fill="rgb(194,214,236)"/></g><g id="Group"><path d=" M 520.259 457.468 L 478.325 481.678 C 477.178 482.322 475.791 482.378 474.596 481.828 L 474.476 481.758 C 473.477 481.208 473.637 480.249 474.736 479.609 L 516.72 455.398 C 517.867 454.754 519.254 454.699 520.449 455.248 L 520.569 455.318 C 521.478 455.868 521.358 456.828 520.259 457.468 Z " fill="rgb(194,214,236)"/><path d=" M 468.379 487.416 L 451.385 497.232 C 450.238 497.875 448.854 497.934 447.657 497.392 L 447.537 497.322 C 446.537 496.773 446.697 495.803 447.807 495.163 L 464.8 485.347 C 465.95 484.712 467.332 484.657 468.529 485.197 L 468.649 485.267 C 469.598 485.817 469.478 486.776 468.379 487.416 Z " fill="rgb(194,214,236)"/></g><g id="Group"><path d=" M 466.829 460.266 L 448.566 470.822 C 447.416 471.457 446.035 471.513 444.838 470.972 L 444.718 470.902 C 443.718 470.353 443.878 469.393 444.988 468.753 L 463.251 458.197 C 464.398 457.556 465.781 457.497 466.979 458.037 L 467.099 458.107 C 468.059 458.667 467.939 459.637 466.829 460.266 Z " fill="rgb(194,214,236)"/><path d=" M 501.256 440.394 L 474.606 455.788 C 473.456 456.423 472.075 456.478 470.878 455.938 L 470.758 455.868 C 469.808 455.318 469.928 454.349 471.028 453.719 L 497.677 438.325 C 498.827 437.69 500.209 437.635 501.406 438.175 L 501.526 438.245 C 502.476 438.795 502.356 439.764 501.256 440.394 Z " fill="rgb(194,214,236)"/></g><g id="Group"><path d=" M 504.335 518.974 L 496.698 523.382 C 495.551 524.025 494.167 524.084 492.969 523.542 L 492.849 523.472 C 491.85 522.913 492.02 521.953 493.119 521.313 L 500.756 516.905 C 501.903 516.27 503.281 516.215 504.475 516.755 L 504.605 516.825 C 505.554 517.375 505.434 518.344 504.335 518.974 Z " fill="rgb(194,214,236)"/><path d=" M 539.621 498.602 L 524.627 507.249 C 523.477 507.882 522.096 507.937 520.899 507.398 L 520.779 507.328 C 519.779 506.779 519.939 505.819 521.039 505.179 L 536.033 496.533 C 537.183 495.9 538.564 495.844 539.761 496.383 L 539.891 496.453 C 540.841 497.002 540.721 497.972 539.621 498.602 Z " fill="rgb(194,214,236)"/><path d=" M 562.942 485.187 L 547.948 493.834 C 546.803 494.473 545.422 494.528 544.23 493.984 L 544.1 493.914 C 543.15 493.364 543.27 492.404 544.37 491.764 L 559.364 483.128 C 560.511 482.487 561.894 482.428 563.092 482.968 L 563.212 483.038 C 564.162 483.538 564.082 484.507 562.942 485.187 Z " fill="rgb(194,214,236)"/><path d=" M 515.841 512.337 L 513.222 513.846 C 512.075 514.48 510.697 514.536 509.503 513.996 L 509.373 513.926 C 508.423 513.376 508.543 512.417 509.643 511.777 L 512.252 510.267 C 513.399 509.623 514.785 509.568 515.98 510.117 L 516.1 510.187 C 517.1 510.737 516.94 511.697 515.841 512.337 Z " fill="rgb(194,214,236)"/></g><g id="Group"><path d=" M 480.114 504.989 L 472.487 509.398 C 471.34 510.042 469.954 510.098 468.758 509.548 L 468.639 509.478 C 467.639 508.928 467.799 507.968 468.908 507.328 L 476.536 502.92 C 477.686 502.287 479.067 502.232 480.264 502.77 L 480.384 502.84 C 481.334 503.39 481.214 504.35 480.114 504.989 Z " fill="rgb(194,214,236)"/><path d=" M 543.81 468.193 L 514.171 485.307 C 513.021 485.941 511.64 485.997 510.443 485.457 L 510.323 485.387 C 509.323 484.837 509.493 483.877 510.593 483.238 L 540.231 466.194 C 541.378 465.55 542.765 465.494 543.96 466.044 L 544.08 466.114 C 545.029 466.614 544.909 467.574 543.81 468.193 Z " fill="rgb(194,214,236)"/><path d=" M 504.355 490.995 L 489.99 499.292 C 488.84 499.925 487.459 499.98 486.262 499.442 L 486.142 499.372 C 485.142 498.822 485.302 497.852 486.402 497.222 L 500.776 488.926 C 501.923 488.283 503.307 488.224 504.505 488.766 L 504.625 488.836 C 505.574 489.395 505.454 490.355 504.355 490.995 Z " fill="rgb(194,214,236)"/></g><g id="Group"><path d=" M 549.418 474.301 L 507.434 498.512 C 506.287 499.156 504.9 499.212 503.705 498.662 L 503.585 498.592 C 502.586 498.042 502.746 497.082 503.845 496.443 L 545.829 472.232 C 546.978 471.593 548.361 471.537 549.558 472.082 L 549.678 472.152 C 550.637 472.702 550.517 473.661 549.418 474.301 Z " fill="rgb(194,214,236)"/><path d=" M 497.537 504.25 L 480.544 514.066 C 479.397 514.708 478.013 514.768 476.815 514.226 L 476.695 514.156 C 475.696 513.606 475.856 512.636 476.965 512.007 L 493.959 502.18 C 495.109 501.546 496.49 501.49 497.687 502.031 L 497.807 502.1 C 498.757 502.65 498.637 503.62 497.537 504.25 Z " fill="rgb(194,214,236)"/></g><g id="Group"><path d=" M 512.412 523.642 L 504.775 528.041 C 503.628 528.683 502.244 528.742 501.046 528.201 L 500.926 528.131 C 499.927 527.581 500.097 526.611 501.196 525.981 L 508.823 521.573 C 509.971 520.932 511.354 520.873 512.552 521.413 L 512.672 521.483 C 513.631 522.043 513.511 523.003 512.412 523.642 Z " fill="rgb(194,214,236)"/><path d=" M 576.077 486.856 L 546.439 503.97 C 545.295 504.612 543.915 504.672 542.72 504.13 L 542.59 504.06 C 541.641 503.5 541.761 502.54 542.86 501.901 L 572.499 484.797 C 573.646 484.155 575.03 484.095 576.227 484.637 L 576.347 484.707 C 577.337 485.257 577.217 486.187 576.077 486.856 Z " fill="rgb(194,214,236)"/><path d=" M 536.653 509.638 L 522.288 517.934 C 521.141 518.577 519.757 518.636 518.559 518.094 L 518.44 518.024 C 517.44 517.465 517.6 516.505 518.709 515.865 L 533.074 507.568 C 534.224 506.934 535.605 506.878 536.802 507.418 L 536.922 507.488 C 537.882 508.038 537.762 509.008 536.653 509.638 Z " fill="rgb(194,214,236)"/></g><g id="Group"><path d=" M 581.715 492.954 L 539.781 517.175 C 538.631 517.808 537.25 517.863 536.053 517.325 L 535.933 517.255 C 534.933 516.705 535.093 515.735 536.203 515.106 L 578.137 490.895 C 579.28 490.252 580.661 490.193 581.855 490.735 L 581.985 490.805 C 582.935 491.345 582.815 492.314 581.715 492.954 Z " fill="rgb(194,214,236)"/><path d=" M 529.835 522.903 L 512.842 532.719 C 511.694 533.363 510.308 533.419 509.113 532.869 L 508.993 532.799 C 507.994 532.249 508.153 531.289 509.263 530.65 L 526.257 520.833 C 527.404 520.189 528.79 520.134 529.985 520.683 L 530.105 520.753 C 531.095 521.303 530.935 522.263 529.835 522.903 Z " fill="rgb(194,214,236)"/></g><g id="Group"><path d=" M 540.911 488.476 L 530.915 494.253 C 529.767 494.894 528.384 494.954 527.186 494.413 L 527.066 494.343 C 526.067 493.794 526.227 492.824 527.336 492.194 L 537.332 486.406 C 538.48 485.766 539.863 485.706 541.061 486.247 L 541.181 486.317 C 542.09 486.866 542.01 487.836 540.911 488.476 Z " fill="rgb(194,214,236)"/><path d=" M 562.763 475.851 L 550.767 482.768 C 549.62 483.412 548.234 483.468 547.039 482.918 L 546.919 482.848 C 545.919 482.298 546.079 481.338 547.189 480.699 L 559.184 473.781 C 560.334 473.147 561.715 473.091 562.913 473.631 L 563.032 473.701 C 563.982 474.251 563.862 475.191 562.763 475.851 Z " fill="rgb(194,214,236)"/><path d=" M 522.488 499.232 L 488.661 518.764 C 487.518 519.406 486.137 519.466 484.942 518.924 L 484.812 518.854 C 483.813 518.294 483.983 517.335 485.082 516.695 L 518.909 497.182 C 520.056 496.54 521.44 496.481 522.638 497.022 L 522.758 497.092 C 523.717 497.632 523.598 498.602 522.488 499.232 Z " fill="rgb(194,214,236)"/></g><path d=" M 440.389 472.342 L 419.287 467.464 C 417.817 467.108 416.268 467.288 414.919 467.974 C 413.78 468.633 413.43 469.623 414.029 470.493 L 422.486 482.678 C 423.116 483.588 424.905 484.037 426.485 483.678 C 428.064 483.318 428.824 482.288 428.194 481.378 L 425.965 478.18 L 432.602 474.351 L 438.15 475.631 C 439.261 475.9 440.432 475.762 441.449 475.241 C 441.717 475.098 441.95 474.897 442.129 474.651 C 442.738 473.741 441.969 472.712 440.389 472.342 Z  M 424.325 475.821 L 421.527 471.822 L 428.524 473.431 L 424.325 475.821 Z " fill="rgb(61,71,84)"/></g></g><g id="graph"><path d=" M 663.784 246.888 L 712.665 218.689 C 713.658 217.982 714.958 217.875 716.054 218.409 L 716.054 218.409 L 718.413 219.618 L 718.413 219.618 C 719.603 220.208 720.362 221.718 720.362 223.917 L 720.362 264.691 C 720.362 268.53 718.023 272.998 715.134 274.687 L 666.253 302.887 C 665.278 303.573 664.013 303.695 662.924 303.207 L 662.924 303.207 L 660.495 301.957 L 660.495 301.957 C 659.316 301.367 658.556 299.858 658.556 297.669 L 658.556 256.884 C 658.566 253.026 660.905 248.557 663.784 246.888 Z " fill="rgb(193,208,221)"/><linearGradient id="_lgradient_74" x1="64.48188711036202%" y1="40.883346446771185%" x2="141.58382476832293%" y2="-7.650639821004956%"><stop offset="0%" stop-opacity="1" style="stop-color:rgb(255,255,255)"/><stop offset="100%" stop-opacity="1" style="stop-color:rgb(206,218,229)"/></linearGradient><path d=" M 666.263 302.867 L 715.144 274.667 C 718.033 272.998 720.372 268.53 720.372 264.671 L 720.372 223.917 C 720.372 220.068 718.033 218.299 715.144 219.968 L 666.263 248.168 C 663.384 249.837 661.045 254.295 661.045 258.164 L 661.045 298.938 C 661.045 302.767 663.384 304.536 666.263 302.867 Z " fill="url(#_lgradient_74)"/><linearGradient id="_lgradient_75" x1="0%" y1="50%" x2="21.21554502832168%" y2="-47.72359310397493%"><stop offset="0%" stop-opacity="1" style="stop-color:rgb(222,120,243)"/></linearGradient><path d=" M 733.337 247.438 L 721.622 256.264 L 716.014 252.616 L 712.405 250.407 L 695.272 272.238 L 684.006 272.978 L 669.222 288.332 L 669.222 293.75 L 672.84 295.959 L 687.525 280.705 L 699.2 279.935 L 715.164 259.583 L 719.883 262.662 L 723.501 264.871 L 736.956 254.745 L 736.956 249.647 L 733.337 247.438 L 733.337 247.438 Z " fill="url(#_lgradient_75)"/><linearGradient id="_lgradient_76" x1="0%" y1="50%" x2="100%" y2="50%"><stop offset="100%" stop-opacity="1" style="stop-color:rgb(222,120,243)"/><stop offset="100%" stop-opacity="1" style="stop-color:rgb(221,119,243)"/></linearGradient><path d=" M 736.956 249.647 L 736.956 254.745 L 723.501 264.871 L 715.244 259.493 L 699.2 279.935 L 687.525 280.705 L 672.84 295.959 L 672.84 290.541 L 687.615 275.187 L 698.881 274.448 L 716.014 252.616 L 725.131 258.554 L 736.956 249.647 L 736.956 249.647 Z " fill="url(#_lgradient_76)"/><linearGradient id="_lgradient_77" x1="0%" y1="50%" x2="100%" y2="50%"><stop offset="100%" stop-opacity="1" style="stop-color:rgb(222,120,243)"/><stop offset="100%" stop-opacity="1" style="stop-color:rgb(216,118,244)"/></linearGradient><path d=" M 684.006 272.978 L 687.615 275.187 L 698.881 274.448 L 695.272 272.238 L 684.006 272.978 L 684.006 272.978 Z " fill="url(#_lgradient_77)"/></g></g></svg>